<svg width="182" height="32" viewBox="0 0 182 32" fill="none" xmlns="http://www.w3.org/2000/svg">
<g clip-path="url(#clip0_5202_8833)">
<path d="M2.42578 31.9999V29.54H4.85188V31.9999L3.63883 30.77L2.42578 31.9999Z" fill="#192039"/>
<path d="M24.2823 4.91976V24.5988C24.2823 25.9582 23.729 27.1881 22.8564 28.0728C21.9839 28.9575 20.7708 29.5185 19.4301 29.5185H2.4261C1.76637 29.5185 1.1492 29.238 0.702292 28.8065C0.255379 28.3533 0 27.7492 0 27.0587V2.45988C0 1.10047 1.08536 0 2.4261 0H19.4088C20.7495 0 21.9626 0.561025 22.8351 1.44572C23.729 2.33041 24.2823 3.56035 24.2823 4.91976Z" fill="#499CFF"/>
<path d="M17.6214 18.2763C18.047 18.6863 18.0683 19.3552 17.6427 19.7652L17.2596 20.1536L16.9191 20.4988C16.536 20.8873 15.8976 20.9088 15.5145 20.542C15.1314 20.1752 14.6845 19.8515 14.1738 19.6357C14.0248 19.571 13.9397 19.42 13.9397 19.2473V18.1469C13.9397 17.9958 13.8333 17.8663 13.7056 17.8232C13.1948 17.6937 12.6628 17.629 12.1094 17.629C11.5561 17.629 11.0241 17.6937 10.5133 17.8232C10.3644 17.8663 10.2792 17.9958 10.2792 18.1469V19.2473C10.2792 19.42 10.1941 19.571 10.0451 19.6357C9.57694 19.8299 9.13003 20.132 8.72568 20.4988C8.34261 20.8657 7.70416 20.8441 7.32109 20.4557L6.98059 20.1104L6.59752 19.722C6.19317 19.3121 6.21445 18.6432 6.6188 18.2332C7.61903 17.2837 8.87465 16.5717 10.2579 16.248C10.8538 16.1185 11.471 16.0322 12.0882 16.0322C12.7053 16.0322 13.3438 16.097 13.9184 16.248C15.3655 16.6148 16.6211 17.3053 17.6214 18.2763Z" fill="white"/>
<path d="M9.10938 11.7165C9.10938 10.0118 10.4714 8.63086 12.1526 8.63086C13.8339 8.63086 15.1959 10.0118 15.1959 11.7165C15.1959 13.4211 13.8339 14.8021 12.1526 14.8021C10.4714 14.8021 9.10938 13.4211 9.10938 11.7165Z" fill="white"/>
<path d="M38.7956 25.0091C37.4762 25.0091 36.2844 24.7933 35.2203 24.3833C34.1562 23.9733 33.2624 23.3692 32.5388 22.5492C31.8153 21.7508 31.2407 20.7582 30.8576 19.6146C30.4745 18.4494 30.2617 17.1332 30.2617 15.6227C30.2617 14.1123 30.4958 12.796 30.9427 11.6308C31.3896 10.4656 32.0068 9.49459 32.7942 8.69621C33.5816 7.89782 34.4968 7.29364 35.5608 6.86209C36.6249 6.45211 37.7528 6.23633 38.9446 6.23633C39.6682 6.23633 40.3492 6.30106 40.9451 6.40895C41.541 6.51684 42.0517 6.64631 42.4986 6.77578C42.9455 6.90524 43.3073 7.05629 43.6053 7.20733C43.9032 7.35838 44.0947 7.46627 44.2224 7.55258L43.286 10.2282C42.8817 9.9693 42.2858 9.73194 41.541 9.49459C40.7748 9.25723 39.9661 9.14934 39.0723 9.14934C38.3062 9.14934 37.5826 9.27881 36.9229 9.55932C36.2631 9.81826 35.6885 10.2282 35.199 10.7677C34.7096 11.3071 34.3265 11.976 34.0711 12.796C33.7945 13.616 33.6668 14.5438 33.6668 15.6227C33.6668 16.5721 33.7732 17.4352 33.986 18.2336C34.1988 19.032 34.518 19.7225 34.9649 20.2835C35.4119 20.8661 35.9652 21.3193 36.6462 21.6214C37.3272 21.945 38.1359 22.0961 39.0936 22.0961C40.2428 22.0961 41.1579 21.9882 41.8815 21.7508C42.605 21.5135 43.1584 21.2977 43.5414 21.0819L44.414 23.7576C44.2011 23.887 43.9245 24.0381 43.584 24.1675C43.2435 24.297 42.8178 24.4481 42.3497 24.5775C41.8815 24.707 41.3281 24.8149 40.7323 24.8796C40.1151 24.9659 39.4766 25.0091 38.7956 25.0091Z" fill="#192039"/>
<path d="M58.6943 17.8228C58.6943 18.9016 58.5453 19.8727 58.2261 20.7358C57.9282 21.6205 57.4813 22.3757 56.9279 22.9799C56.3746 23.6056 55.6936 24.0803 54.9062 24.4256C54.1188 24.7708 53.2462 24.9435 52.2886 24.9435C51.3309 24.9435 50.4583 24.7708 49.6922 24.4256C48.9048 24.0803 48.2451 23.6056 47.6705 22.9799C47.0959 22.3541 46.6702 21.5989 46.351 20.7358C46.0318 19.8511 45.8828 18.8801 45.8828 17.8228C45.8828 16.7439 46.0318 15.7729 46.351 14.9097C46.6702 14.0466 47.1171 13.2914 47.6705 12.6656C48.2451 12.0399 48.9261 11.5652 49.6922 11.2199C50.4796 10.8747 51.3309 10.7236 52.2673 10.7236C53.2037 10.7236 54.0762 10.8963 54.8636 11.2199C55.651 11.5652 56.332 12.0399 56.8854 12.6656C57.4387 13.2914 57.8856 14.025 58.2048 14.9097C58.5453 15.7944 58.6943 16.7654 58.6943 17.8228ZM55.5234 17.8228C55.5234 16.4849 55.2467 15.406 54.6721 14.6292C54.0975 13.8524 53.3101 13.4424 52.2886 13.4424C51.267 13.4424 50.4796 13.8308 49.905 14.6292C49.3304 15.406 49.0538 16.4849 49.0538 17.8228C49.0538 19.1822 49.3304 20.2611 49.905 21.0594C50.4796 21.8578 51.267 22.2462 52.2886 22.2462C53.3101 22.2462 54.0975 21.8578 54.6721 21.0594C55.2467 20.2826 55.5234 19.2037 55.5234 17.8228Z" fill="#192039"/>
<path d="M61.7791 11.5227C62.375 11.3501 63.1411 11.1775 64.0988 11.0264C65.0565 10.8754 66.0993 10.7891 67.2697 10.7891C68.3551 10.7891 69.2702 10.9401 69.9938 11.2422C70.7174 11.5443 71.3132 11.9758 71.7389 12.5153C72.1645 13.0547 72.4837 13.7237 72.654 14.4789C72.8242 15.2557 72.9306 16.0972 72.9306 17.0035V24.6205H69.8448V17.4998C69.8448 16.7661 69.8022 16.162 69.6958 15.6441C69.6107 15.1262 69.4405 14.7162 69.2276 14.3926C69.0148 14.0689 68.7169 13.8315 68.3551 13.7021C67.9933 13.551 67.5464 13.4863 67.0144 13.4863C66.6313 13.4863 66.2057 13.5079 65.78 13.5726C65.3544 13.6158 65.0352 13.6589 64.8436 13.7021V24.6205H61.7578L61.7791 11.5227Z" fill="#192039"/>
<path d="M76.4648 7.50908L79.5507 6.99121V11.0694H84.2965V13.6804H79.5507V19.2043C79.5507 20.2832 79.7209 21.06 80.0614 21.5347C80.4019 22.0094 80.9765 22.2252 81.8065 22.2252C82.3598 22.2252 82.8706 22.1605 83.2962 22.0526C83.7219 21.9231 84.0836 21.8152 84.339 21.7073L84.8498 24.1888C84.488 24.3398 84.0198 24.5124 83.4452 24.6635C82.8706 24.8361 82.1896 24.9008 81.4022 24.9008C80.4445 24.9008 79.6571 24.7714 79.0186 24.5124C78.3802 24.2535 77.8694 23.8867 77.5076 23.3904C77.1246 22.8941 76.8692 22.3115 76.7202 21.5994C76.5713 20.9089 76.4861 20.1106 76.4861 19.2043L76.4648 7.50908Z" fill="#192039"/>
<path d="M91.6147 10.7461C92.6362 10.7461 93.4875 10.8756 94.1898 11.1345C94.8921 11.3934 95.4454 11.7603 95.871 12.2134C96.2967 12.6881 96.5946 13.2491 96.7649 13.918C96.9351 14.587 97.0415 15.3206 97.0415 16.0974V24.297C96.5733 24.4049 95.8497 24.5344 94.8921 24.6638C93.9344 24.8149 92.849 24.8796 91.636 24.8796C90.8273 24.8796 90.1037 24.7933 89.444 24.6422C88.7843 24.4912 88.2097 24.2323 87.7415 23.887C87.2733 23.5418 86.9115 23.0886 86.6348 22.5492C86.3794 21.9882 86.2305 21.3193 86.2305 20.4993C86.2305 19.7225 86.3794 19.0752 86.6774 18.5357C86.9753 17.9963 87.3797 17.5647 87.8904 17.2195C88.4012 16.8742 88.9971 16.6369 89.6568 16.4858C90.3378 16.3348 91.0401 16.27 91.7637 16.27C92.1042 16.27 92.466 16.2916 92.8278 16.3348C93.2108 16.3779 93.5939 16.4427 94.0195 16.5505V16.0327C94.0195 15.6659 93.977 15.3206 93.8918 14.9969C93.8067 14.6733 93.6577 14.3712 93.4449 14.1338C93.2321 13.8749 92.9555 13.6807 92.5937 13.5512C92.2532 13.4218 91.8062 13.3354 91.2742 13.3354C90.5506 13.3354 89.9122 13.3786 89.3163 13.4865C88.7204 13.5944 88.2309 13.7023 87.8691 13.8533L87.4861 11.3071C87.8692 11.1777 88.4438 11.0266 89.1886 10.8971C89.9547 10.8108 90.7634 10.7461 91.6147 10.7461ZM91.8701 22.4197C92.8278 22.4197 93.5513 22.3766 94.0408 22.2687V18.7946C93.8706 18.7515 93.6152 18.6868 93.296 18.6436C92.9767 18.6004 92.6149 18.5573 92.2319 18.5573C91.8914 18.5573 91.5509 18.5789 91.1891 18.6436C90.8486 18.6868 90.5294 18.7946 90.2527 18.9241C89.976 19.0536 89.7419 19.2478 89.5717 19.5067C89.4014 19.7656 89.3163 20.0677 89.3163 20.4561C89.3163 21.1898 89.5504 21.7077 89.9973 21.9882C90.4655 22.2687 91.0827 22.4197 91.8701 22.4197Z" fill="#192039"/>
<path d="M99.957 17.8668C99.957 16.8742 100.106 15.9248 100.425 15.0617C100.723 14.1986 101.17 13.4433 101.745 12.796C102.319 12.1487 103 11.6524 103.83 11.2855C104.639 10.9187 105.575 10.7461 106.597 10.7461C107.852 10.7461 109.044 10.9835 110.172 11.4366L109.512 14.0044C109.151 13.8533 108.746 13.7238 108.299 13.616C107.852 13.5081 107.363 13.4649 106.852 13.4649C105.639 13.4649 104.724 13.8533 104.086 14.6085C103.447 15.3853 103.149 16.4642 103.149 17.8452C103.149 19.183 103.447 20.2619 104.043 21.0387C104.639 21.8155 105.639 22.2255 107.044 22.2255C107.576 22.2255 108.087 22.1824 108.597 22.0745C109.108 21.9666 109.555 21.8371 109.917 21.6861L110.342 24.2754C110.002 24.4481 109.491 24.5991 108.789 24.7501C108.108 24.8796 107.384 24.9659 106.661 24.9659C105.512 24.9659 104.533 24.7933 103.681 24.4265C102.83 24.0812 102.149 23.5849 101.596 22.9592C101.042 22.3334 100.638 21.5782 100.361 20.7151C100.085 19.8304 99.957 18.881 99.957 17.8668Z" fill="#192039"/>
<path d="M112.492 7.50908L115.578 6.99121V11.0694H120.324V13.6804H115.578V19.2043C115.578 20.2832 115.748 21.06 116.089 21.5347C116.429 22.0094 117.004 22.2252 117.834 22.2252C118.387 22.2252 118.898 22.1605 119.324 22.0526C119.749 21.9231 120.111 21.8152 120.366 21.7073L120.877 24.1888C120.515 24.3398 120.047 24.5124 119.473 24.6635C118.898 24.8361 118.217 24.9008 117.43 24.9008C116.472 24.9008 115.684 24.7714 115.046 24.5124C114.408 24.2535 113.897 23.8867 113.535 23.3904C113.152 22.8941 112.897 22.3115 112.748 21.5994C112.599 20.9089 112.513 20.1106 112.513 19.2043L112.492 7.50908Z" fill="#192039"/>
<path d="M128.689 24.8147C127.753 24.8147 126.817 24.7932 125.859 24.7284C124.901 24.6637 124.071 24.5342 123.348 24.3616V6.94825C123.731 6.88352 124.114 6.81879 124.539 6.75405C124.965 6.68932 125.391 6.64616 125.838 6.60301C126.285 6.55985 126.71 6.53827 127.157 6.5167C127.583 6.49512 128.008 6.49512 128.391 6.49512C129.455 6.49512 130.456 6.58143 131.371 6.73247C132.286 6.9051 133.095 7.16403 133.754 7.55243C134.435 7.94084 134.946 8.43713 135.329 9.06289C135.712 9.68864 135.882 10.4439 135.882 11.3717C135.882 12.2133 135.691 12.9469 135.287 13.5511C134.882 14.1553 134.329 14.63 133.605 14.9968C134.669 15.3636 135.478 15.9031 135.989 16.5936C136.5 17.3056 136.755 18.1903 136.755 19.2908C136.755 21.1465 136.095 22.5275 134.755 23.4338C133.456 24.3616 131.435 24.8147 128.689 24.8147ZM126.519 13.9826H128.796C130.03 13.9826 130.988 13.81 131.669 13.4432C132.371 13.0979 132.712 12.4506 132.712 11.5443C132.712 10.6812 132.35 10.077 131.626 9.71022C130.903 9.3434 129.966 9.17077 128.817 9.17077C128.328 9.17077 127.881 9.17077 127.498 9.19235C127.114 9.21393 126.795 9.23551 126.519 9.27866V13.9826ZM126.519 16.5504V22.0096C126.88 22.0528 127.263 22.0744 127.668 22.0959C128.072 22.1175 128.455 22.1175 128.796 22.1175C129.455 22.1175 130.073 22.0744 130.647 21.988C131.222 21.9017 131.711 21.7507 132.137 21.5349C132.563 21.3191 132.882 21.0386 133.137 20.6718C133.393 20.305 133.499 19.8518 133.499 19.2692C133.499 18.2551 133.137 17.543 132.392 17.1546C131.669 16.7662 130.647 16.5504 129.349 16.5504H126.519Z" fill="#192039"/>
<path d="M151.929 17.8228C151.929 18.9016 151.78 19.8727 151.46 20.7358C151.163 21.6205 150.716 22.3757 150.162 22.9799C149.609 23.6056 148.928 24.0803 148.141 24.4256C147.353 24.7708 146.481 24.9435 145.523 24.9435C144.565 24.9435 143.693 24.7708 142.927 24.4256C142.139 24.0803 141.479 23.6056 140.905 22.9799C140.352 22.3541 139.905 21.5989 139.585 20.7358C139.266 19.8727 139.117 18.8801 139.117 17.8228C139.117 16.7439 139.266 15.7729 139.585 14.9097C139.905 14.0466 140.352 13.2914 140.905 12.6656C141.479 12.0399 142.16 11.5652 142.927 11.2199C143.714 10.8747 144.565 10.7236 145.502 10.7236C146.438 10.7236 147.311 10.8963 148.098 11.2199C148.885 11.5652 149.566 12.0399 150.12 12.6656C150.673 13.2914 151.12 14.025 151.439 14.9097C151.78 15.7944 151.929 16.7654 151.929 17.8228ZM148.779 17.8228C148.779 16.4849 148.502 15.406 147.928 14.6292C147.353 13.8524 146.566 13.4424 145.544 13.4424C144.523 13.4424 143.735 13.8308 143.161 14.6292C142.586 15.406 142.309 16.4849 142.309 17.8228C142.309 19.1822 142.586 20.2611 143.161 21.0594C143.735 21.8578 144.523 22.2462 145.544 22.2462C146.566 22.2462 147.353 21.8578 147.928 21.0594C148.481 20.2826 148.779 19.2037 148.779 17.8228Z" fill="#192039"/>
<path d="M167.101 17.8228C167.101 18.9016 166.952 19.8727 166.632 20.7358C166.334 21.6205 165.888 22.3757 165.334 22.9799C164.781 23.6056 164.1 24.0803 163.312 24.4256C162.525 24.7708 161.652 24.9435 160.695 24.9435C159.737 24.9435 158.865 24.7708 158.098 24.4256C157.311 24.0803 156.651 23.6056 156.077 22.9799C155.523 22.3541 155.076 21.5989 154.757 20.7358C154.438 19.8511 154.289 18.8801 154.289 17.8228C154.289 16.7439 154.438 15.7729 154.757 14.9097C155.076 14.0466 155.523 13.2914 156.077 12.6656C156.651 12.0399 157.332 11.5652 158.098 11.2199C158.886 10.8747 159.737 10.7236 160.674 10.7236C161.61 10.7236 162.482 10.8963 163.27 11.2199C164.057 11.5652 164.738 12.0399 165.292 12.6656C165.845 13.2914 166.292 14.025 166.611 14.9097C166.93 15.7944 167.101 16.7654 167.101 17.8228ZM163.93 17.8228C163.93 16.4849 163.653 15.406 163.078 14.6292C162.504 13.8524 161.716 13.4424 160.695 13.4424C159.673 13.4424 158.886 13.8308 158.311 14.6292C157.737 15.406 157.46 16.4849 157.46 17.8228C157.46 19.1822 157.737 20.2611 158.311 21.0594C158.886 21.8578 159.673 22.2462 160.695 22.2462C161.716 22.2462 162.504 21.8578 163.078 21.0594C163.653 20.2826 163.93 19.2037 163.93 17.8228Z" fill="#192039"/>
<path d="M173.271 16.3559C173.654 15.946 174.08 15.4928 174.527 15.0181C174.974 14.5434 175.399 14.0687 175.825 13.594C176.251 13.1192 176.655 12.6661 177.038 12.213C177.421 11.7814 177.74 11.393 178.017 11.0694H181.656C180.805 12.0404 179.911 13.0329 178.975 14.0687C178.038 15.1044 177.081 16.1186 176.144 17.0896C176.655 17.5211 177.187 18.039 177.74 18.6648C178.294 19.2689 178.847 19.9379 179.379 20.6284C179.911 21.3188 180.4 22.0093 180.847 22.6998C181.316 23.3903 181.699 24.0377 181.997 24.6203H178.421C178.123 24.0808 177.762 23.5198 177.357 22.9372C176.953 22.3546 176.527 21.772 176.059 21.2325C175.591 20.6715 175.123 20.1536 174.654 19.6573C174.186 19.1611 173.718 18.7511 173.25 18.4058V24.6203H170.164V5.04912L173.25 4.53125V16.3559H173.271Z" fill="#192039"/>
</g>
<defs>
<clipPath id="clip0_5202_8833">
<rect width="182" height="32" fill="white"/>
</clipPath>
</defs>
</svg>
